# xmcd
#
# Track frame offsets:
#	150
#	17227
#	35002
#	50575
#	64907
#	98642
#	117472
#	140247
#	158367
#	176787
#	193617
#	210027
#
# Disc length: 3216 seconds
#
# Revision: 5
# Processed by: cddbd v1.5.2PL0 Copyright (c) Steve Scherf et al.
# Submitted via: audiograbber 1.83.01
#
DISCID=a70c8e0c
DTITLE=James Blundell - This Road
DYEAR=1992
DGENRE=Country
TTITLE0=This Road
TTITLE1=Down On The Farm
TTITLE2=Young John Taylor
TTITLE3=The Old Man's Gone
TTITLE4=Hard Times - Way Out West (with James Reyne)
TTITLE5=I Don't Fight Anymore
TTITLE6=Rain On A Tin Roof
TTITLE7=All That I Need
TTITLE8=She Won't Let You Down
TTITLE9=Cabin Fever
TTITLE10=Strokin'
TTITLE11=Older Now
EXTD=
EXTT0=
EXTT1=
EXTT2=
EXTT3=
EXTT4=
EXTT5=
EXTT6=
EXTT7=
EXTT8=
EXTT9=
EXTT10=
EXTT11=
PLAYORDER=
